<?xml version="1.0" encoding="utf-8"?>
<!-- Generator: Adobe Illustrator 26.5.0, SVG Export Plug-In . SVG Version: 6.00 Build 0)  -->
<svg version="1.1" id="Layer_1" xmlns="http://www.w3.org/2000/svg" xmlns:xlink="http://www.w3.org/1999/xlink" x="0px" y="0px"
	 viewBox="0 0 2500 2500" style="enable-background:new 0 0 2500 2500;" xml:space="preserve">
<style type="text/css">
	.st0{fill-rule:evenodd;clip-rule:evenodd;fill:#FFFFFF;fill-opacity:0;}
	.st1{fill-rule:evenodd;clip-rule:evenodd;fill:#81FFE6;}
	.st2{fill-rule:evenodd;clip-rule:evenodd;fill:#FFFFFF;}
</style>
<g>
	<path class="st0" d="M0,0h2500v2500H0V0z"/>
	<path class="st1" d="M2215.4,1250c0,536-434.5,970.6-970.6,970.6S274.2,1786,274.2,1250c0-536.1,434.6-970.6,970.6-970.6
		S2215.4,713.9,2215.4,1250z"/>
	<path class="st2" d="M1109.9,1048.6h2.9c60.2-76.5,130.9-114.7,212.4-114.7c63.9,0,120.7,19.8,170.5,59.2
		c48.3,41.9,73.4,109.8,75.3,203.7v439.6h-210.6v-393.5c-1.9-100.2-38.1-150.4-108.9-150.4c-47-1-94.2,33.8-141.6,104.4v439.5H899.3
		V614.1h210.6L1109.9,1048.6L1109.9,1048.6z M1571.3,1894.2H900.4v-128.6h670.9L1571.3,1894.2L1571.3,1894.2z"/>
	<path class="st1" d="M2153.5,549.9h-23v59.5h-9.5v-59.5h-22.9V541h55.4V549.9z M2225.8,609.3h-9.5V556h-0.2l-20.4,26.5h-1.6
		l-20.4-26.5h-0.2v53.3h-9.5V541h9l22,28l22.1-28h8.8V609.3z"/>
</g>
</svg>
