<?xml version="1.0" encoding="UTF-8"?>
<svg id="Layer_1" data-name="Layer 1" xmlns="http://www.w3.org/2000/svg" xmlns:xlink="http://www.w3.org/1999/xlink" viewBox="0 0 2500 2500">
  <defs>
    <style>
      .cls-1 {
        fill: url(#linear-gradient-2);
      }

      .cls-2 {
        fill: url(#linear-gradient-6);
      }

      .cls-3 {
        fill: url(#linear-gradient-5);
      }

      .cls-4 {
        fill: url(#linear-gradient-3);
      }

      .cls-5 {
        fill: url(#linear-gradient);
      }

      .cls-6 {
        fill: url(#linear-gradient-4);
      }
    </style>
    <linearGradient id="linear-gradient" x1="490.06" y1="795.33" x2="706.46" y2="1309.31" gradientUnits="userSpaceOnUse">
      <stop offset="0" stop-color="#c58df8"/>
      <stop offset=".14" stop-color="#c18bf6"/>
      <stop offset=".26" stop-color="#b686f3"/>
      <stop offset=".37" stop-color="#a47dec"/>
      <stop offset=".49" stop-color="#8a70e3"/>
      <stop offset=".6" stop-color="#6960d8"/>
      <stop offset=".7" stop-color="#414dca"/>
      <stop offset=".77" stop-color="#2540c1"/>
    </linearGradient>
    <linearGradient id="linear-gradient-2" x1="1068.48" y1="2444.11" x2="677.93" y2="1385.11" gradientUnits="userSpaceOnUse">
      <stop offset="0" stop-color="#2641c4"/>
      <stop offset=".93" stop-color="#6766f2"/>
    </linearGradient>
    <linearGradient id="linear-gradient-3" x1="2210.39" y1="2001.71" x2="1838.62" y2="1273.17" gradientUnits="userSpaceOnUse">
      <stop offset=".46" stop-color="#c58df8"/>
      <stop offset=".52" stop-color="#be8af5"/>
      <stop offset=".6" stop-color="#ad81ef"/>
      <stop offset=".68" stop-color="#9174e6"/>
      <stop offset=".78" stop-color="#6961d8"/>
      <stop offset=".88" stop-color="#3749c7"/>
      <stop offset=".91" stop-color="#2540c1"/>
    </linearGradient>
    <linearGradient id="linear-gradient-4" x1="1437.56" y1="22.2" x2="1790.56" y2="1197.62" gradientUnits="userSpaceOnUse">
      <stop offset="0" stop-color="#2641c4"/>
      <stop offset="1" stop-color="#6766f2"/>
    </linearGradient>
    <linearGradient id="linear-gradient-5" x1="822.71" y1="1722.98" x2="1829.14" y2="913.71" gradientUnits="userSpaceOnUse">
      <stop offset="0" stop-color="#2b43c9"/>
      <stop offset=".5" stop-color="#c39cf7"/>
      <stop offset="1" stop-color="#2441c1"/>
    </linearGradient>
    <linearGradient id="linear-gradient-6" x1="1737.71" y1="766.47" x2="509.64" y2="1596.63" xlink:href="#linear-gradient-5"/>
  </defs>
  <path class="cls-5" d="M980.14,968.07c-.02-78.35,.02-191.66,0-269.9,0-154.44-125.17-279.61-279.61-279.61l-279.33-.82c-.91,311.34,.16,880.95-.24,1197.31,.03,30.88-.02,118.3,0,184.63-24.38,405.06,416.71,852.39,1109.49,650.04-334.05-116.07-565.73-452.38-550.31-806.72-.16-24.58,.11-88.22,0-113.22V968.07Z"/>
  <path class="cls-1" d="M420.96,1615.06c.03,30.88-.02,118.3,0,184.63-24.38,405.06,416.71,852.39,1109.49,650.04-334.05-116.07-565.73-452.38-550.31-806.72-.16-24.58,.11-88.22,0-113.22V968.07L420.96,1615.06Z"/>
  <path class="cls-4" d="M1521.48,1531.93c.02,78.35-.02,191.66,0,269.9,0,154.44,124.93,279.61,279.08,279.61l278.8,.82c.91-311.34-.16-880.95,.24-1197.31-.03-30.88,.02-118.3,0-184.63,24.33-405.06-415.91-852.39-1107.39-650.04,333.42,116.07,564.66,452.38,549.27,806.72,.16,24.58-.11,88.22,0,113.22v561.71Z"/>
  <path class="cls-6" d="M2079.59,700.31c24.33-405.06-415.91-852.39-1107.39-650.04,333.42,116.07,564.66,452.38,549.27,806.72,.16,24.58-.11,88.22,0,113.22v561.71l558.12-831.61Z"/>
  <path class="cls-3" d="M513.07,1489.27c130.25-198.8,302.32-266.09,466.08-266.09h539.73c306.52,0,555.68-245.52,561.6-550.65l.11,5.33v290.2c0,310.23-251.49,561.71-561.71,561.71H979.15c-182.46,0-559.14,126.31-559.14,308.73,0,0-13.96-185.88,93.06-349.24Z"/>
  <path class="cls-2" d="M2080.48,672.54c-5.92,305.13-255.08,550.65-561.6,550.65H979.15c-169.6,0-508.64,119-557.56,543.52-.78,6.81,.54-259.23-.37-252.48,8.24-303.07,256.48-546.16,561.49-546.16h538.73c182.46,0,558.29-147.38,558.29-329.8l.74,34.27Z"/>
</svg>