<?xml version="1.0" encoding="UTF-8"?>
<svg id="Layer_1" data-name="Layer 1" xmlns="http://www.w3.org/2000/svg" xmlns:xlink="http://www.w3.org/1999/xlink" viewBox="0 0 2138.22 398.55">
  <defs>
    <style>
      .cls-1 {
        fill: url(#linear-gradient-2);
      }

      .cls-2 {
        fill: #2641c4;
      }

      .cls-3 {
        fill: url(#linear-gradient-6);
      }

      .cls-4 {
        fill: url(#linear-gradient-5);
      }

      .cls-5 {
        fill: url(#linear-gradient-3);
      }

      .cls-6 {
        fill: url(#linear-gradient);
      }

      .cls-7 {
        fill: url(#linear-gradient-4);
      }
    </style>
    <linearGradient id="linear-gradient" x1="11.26" y1="126.79" x2="45.76" y2="208.73" gradientUnits="userSpaceOnUse">
      <stop offset="0" stop-color="#c58df8"/>
      <stop offset=".14" stop-color="#c18bf6"/>
      <stop offset=".26" stop-color="#b686f3"/>
      <stop offset=".37" stop-color="#a47dec"/>
      <stop offset=".49" stop-color="#8a70e3"/>
      <stop offset=".6" stop-color="#6960d8"/>
      <stop offset=".7" stop-color="#414dca"/>
      <stop offset=".77" stop-color="#2540c1"/>
    </linearGradient>
    <linearGradient id="linear-gradient-2" x1="103.47" y1="389.64" x2="41.21" y2="220.81" gradientUnits="userSpaceOnUse">
      <stop offset="0" stop-color="#2641c4"/>
      <stop offset=".93" stop-color="#6766f2"/>
    </linearGradient>
    <linearGradient id="linear-gradient-3" x1="285.52" y1="319.11" x2="226.25" y2="202.97" gradientUnits="userSpaceOnUse">
      <stop offset=".46" stop-color="#c58df8"/>
      <stop offset=".52" stop-color="#be8af5"/>
      <stop offset=".6" stop-color="#ad81ef"/>
      <stop offset=".68" stop-color="#9174e6"/>
      <stop offset=".78" stop-color="#6961d8"/>
      <stop offset=".88" stop-color="#3749c7"/>
      <stop offset=".91" stop-color="#2540c1"/>
    </linearGradient>
    <linearGradient id="linear-gradient-4" x1="162.31" y1="3.54" x2="218.59" y2="190.92" gradientUnits="userSpaceOnUse">
      <stop offset="0" stop-color="#2641c4"/>
      <stop offset="1" stop-color="#6766f2"/>
    </linearGradient>
    <linearGradient id="linear-gradient-5" x1="64.29" y1="274.68" x2="224.74" y2="145.66" gradientUnits="userSpaceOnUse">
      <stop offset="0" stop-color="#2b43c9"/>
      <stop offset=".5" stop-color="#c39cf7"/>
      <stop offset="1" stop-color="#2441c1"/>
    </linearGradient>
    <linearGradient id="linear-gradient-6" x1="210.16" y1="122.19" x2="14.38" y2="254.53" xlink:href="#linear-gradient-5"/>
  </defs>
  <g>
    <path class="cls-6" d="M89.39,154.33c0-12.49,0-30.55,0-43.03,0-24.62-19.95-44.57-44.57-44.57l-44.53-.13c-.15,49.63,.03,140.44-.04,190.87,0,4.92,0,18.86,0,29.43-3.89,64.57,66.43,135.89,176.87,103.63-53.25-18.5-90.19-72.12-87.73-128.61-.02-3.92,.02-14.06,0-18.05v-89.55Z"/>
    <path class="cls-1" d="M.25,257.47c0,4.92,0,18.86,0,29.43-3.89,64.57,66.43,135.89,176.87,103.63-53.25-18.5-90.19-72.12-87.73-128.61-.02-3.92,.02-14.06,0-18.05v-89.55L.25,257.47Z"/>
    <path class="cls-5" d="M175.69,244.22c0,12.49,0,30.55,0,43.03,0,24.62,19.92,44.57,44.49,44.57l44.45,.13c.14-49.63-.03-140.44,.04-190.87,0-4.92,0-18.86,0-29.43C268.54,47.07,198.36-24.24,88.13,8.01c53.15,18.5,90.02,72.12,87.56,128.61,.02,3.92-.02,14.06,0,18.05v89.55Z"/>
    <path class="cls-7" d="M264.66,111.64C268.54,47.07,198.36-24.24,88.13,8.01c53.15,18.5,90.02,72.12,87.56,128.61,.02,3.92-.02,14.06,0,18.05v89.55l88.97-132.57Z"/>
    <path class="cls-4" d="M14.93,237.42c20.76-31.69,48.19-42.42,74.3-42.42h86.04c48.87,0,88.59-39.14,89.53-87.78l.02,.85v46.26c0,49.46-40.09,89.55-89.55,89.55H89.23C60.15,243.88,.1,264.01,.1,293.09c0,0-2.23-29.63,14.84-55.68Z"/>
    <path class="cls-3" d="M264.81,107.22c-.94,48.64-40.66,87.78-89.53,87.78H89.23c-27.04,0-81.09,18.97-88.89,86.65-.13,1.09,.09-41.33-.06-40.25,1.31-48.31,40.89-87.07,89.51-87.07h85.88c29.09,0,89-23.49,89-52.58l.12,5.46Z"/>
  </g>
  <g>
    <path class="cls-2" d="M366.36,320.5V98.51h50.13v85.25h76.73V98.51h50.47v222h-50.47v-92.75h-76.73v92.75h-50.13Z"/>
    <path class="cls-2" d="M634.39,324.59c-28.94,.67-50.9-22.56-50.13-51.15,1.59-47.59,45.7-55.69,95.14-62.4-1.22-15.73-10.49-23.78-26.6-23.53-16.34,.04-29.58,6.19-44.67,14.32l-18.07-32.4c30.47-19.19,76.18-31.36,108.95-13.81,23.68,14.04,30.67,38.99,30.86,68.37,0,0,0,96.51,0,96.51h-41.26l-3.41-17.39h-1.36c-14.63,12.46-29.66,21.68-49.45,21.48Zm17.05-39.22c11.8,.07,19.88-5.69,27.96-13.98v-28.64c-17.54,2.81-32.56,4.81-42.63,15.17-5.91,6.48-6.19,18.53,.85,23.53,3.52,2.62,8.13,3.92,13.81,3.92Z"/>
    <path class="cls-2" d="M771.81,320.5V151.36h40.92l3.41,21.48h1.36c14.77-14.36,32.2-26.01,54.22-25.58,40.94-.02,51.97,30.16,52.52,68.2,0,0,0,105.03,0,105.03h-50.13v-98.55c0-12.28-1.65-20.69-4.95-25.24-5.97-9.16-23.84-8.15-32.22-2.56-4.55,2.85-9.55,6.88-15,12.11v114.24h-50.13Z"/>
    <path class="cls-2" d="M1016.65,324.59c-22.16,.05-48.77-9.17-64.79-25.23l21.14-28.3c13.72,11.14,28.83,16.18,45.01,16.37,7.5,0,12.96-1.31,16.37-3.92,6.48-4.61,6.99-15.03,.51-19.95-7.78-6.18-18.23-8.84-28.47-12.96-15.3-5.65-30.23-14.12-39.05-27.62-12.12-18.8-6.32-47.88,11.59-61.21,27.68-22.83,80.2-17.43,106.57,6.99l-21.48,27.96c-11.24-7.98-23.47-12.19-36.49-12.28-6.6,0-11.48,1.25-14.66,3.75-5.75,4.2-6.45,12.84-1.36,17.73,7.19,6.48,17.07,8.74,27.96,12.62,8.64,2.96,16.54,6.65,23.7,11.08,14.72,9.26,23.17,22.3,23.02,40.41-.02,36.6-34.18,55.63-69.57,54.56Z"/>
    <path class="cls-2" d="M1258.08,324.59c-29.95-.04-60.27-11-82.18-32.4l26.6-32.74c19.31,17.1,57.91,30.11,80.31,16.03,8.37-5.56,10.38-19.85,3.75-27.11-7.19-7.4-17.47-10.35-28.13-15.17-14.83-6.23-38.24-14.4-50.64-25.06-24.63-17.73-30.52-55.95-12.96-81.16,6.7-9.89,16.03-17.84,27.96-23.87,34.97-17.43,84.65-9.06,112.7,18.93l-26.6,32.4c-13.47-10.04-28.77-17.04-45.01-17.05-14.46,.03-28.06,5.19-28.3,20.12,0,4.32,1.48,8.01,4.43,11.08,7.35,7.46,19.13,10.12,29.33,15.18,14.68,6.33,40.63,14.61,52,25.23,14.02,12.01,20.72,27.26,20.63,46.72-.03,43.62-41.13,70.31-83.89,68.88Z"/>
    <path class="cls-2" d="M1434.04,324.25c-75.93,.78-55.94-83.42-58.65-133.67h-22.85v-37.17l25.92-2.05,5.8-51.83h41.6v51.83h40.24v39.22h-40.24v67.52c0,9.55,1.99,16.43,5.97,20.63,7.32,8.18,21.95,7.61,31.54,3.24l8.18,35.12c-10.85,4.98-24.1,7.21-37.51,7.16Z"/>
    <path class="cls-2" d="M1550.32,324.59c-40.21-.04-52.09-30.44-52.51-68.2,0,0,0-105.03,0-105.03h50.13v98.55c0,12.28,1.7,20.69,5.12,25.23,6.04,8.96,23.48,8.32,31.88,2.56,4.43-2.84,9.15-7.56,14.15-14.15v-112.19h50.13v169.14h-40.92l-3.75-23.53h-1.02c-14.69,17-30.08,27.76-53.2,27.62Z"/>
    <path class="cls-2" d="M1753.56,324.59c-80.08,1.25-91.21-128.91-32.91-166.58,24.95-16.69,55.17-13.89,75.53,6.99l-2.05-25.92v-57.63h50.13v239.05h-40.92l-3.41-16.71h-1.36c-11.41,11.38-28.61,21.04-45.01,20.8Zm12.96-40.92c12.03-.15,20.46-4.74,27.62-15.35v-69.22c-7.95-7.73-17.6-10.8-27.96-10.91-12.54,.17-21.14,8.42-26.09,20.63-2.85,6.94-4.26,15.75-4.26,26.43,.3,25.76,5.86,47.39,30.69,48.42Z"/>
    <path class="cls-2" d="M1913.49,126.47c-16.03,.21-28.5-9.98-28.3-26.26-.72-35.11,57.33-35.11,56.61,0,.2,16.28-12.28,26.46-28.3,26.26Zm-24.89,194.03V151.36h49.79v169.14h-49.79Z"/>
    <path class="cls-2" d="M2055.69,324.59c-70.8-.31-102.01-79.04-70.76-136.57,30.51-54.1,110.62-54.18,141.18,0,31.18,57.43,.16,136.02-70.42,136.57Zm0-40.58c34.1,0,34.44-49.81,27.62-73.66-4.3-13.71-13.23-22.52-27.62-22.51-14.75-.02-23.22,8.64-27.62,22.51-6.84,23.57-6.39,74.08,27.62,73.66Z"/>
  </g>
</svg>