<?xml version="1.0" encoding="UTF-8"?>
<svg id="Layer_2" data-name="Layer 2" xmlns="http://www.w3.org/2000/svg" viewBox="0 0 2018.38 271.49">
  <defs>
    <style>
      .cls-1 {
        fill: #fff;
      }
    </style>
  </defs>
  <g id="Layer_1-2" data-name="Layer 1">
    <g>
      <g>
        <path class="cls-1" d="M60.89,105.13c0-8.51,0-20.81,0-29.31,0-16.77-13.59-30.36-30.36-30.36l-30.33-.09c-.1,33.81,.02,95.67-.03,130.02,0,3.35,0,12.85,0,20.05-2.65,43.99,45.25,92.57,120.49,70.59-36.28-12.61-61.44-49.13-59.76-87.61-.02-2.67,.01-9.58,0-12.29v-61Z"/>
        <path class="cls-1" d="M.17,175.39c0,3.35,0,12.85,0,20.05-2.65,43.99,45.25,92.57,120.49,70.59-36.28-12.61-61.44-49.13-59.76-87.61-.02-2.67,.01-9.58,0-12.29v-61L.17,175.39Z"/>
        <path class="cls-1" d="M119.68,166.36c0,8.51,0,20.81,0,29.31,0,16.77,13.57,30.36,30.31,30.36l30.28,.09c.1-33.81-.02-95.67,.03-130.02,0-3.35,0-12.85,0-20.05,2.64-43.99-45.17-92.57-120.26-70.59,36.21,12.61,61.32,49.13,59.65,87.61,.02,2.67-.01,9.58,0,12.29v61Z"/>
        <path class="cls-1" d="M180.29,76.05c2.64-43.99-45.17-92.57-120.26-70.59,36.21,12.61,61.32,49.13,59.65,87.61,.02,2.67-.01,9.58,0,12.29v61l60.61-90.31Z"/>
        <path class="cls-1" d="M180.38,73.03l-.08-3.72c0,19.81-40.81,35.81-60.63,35.81H61.17C28.05,105.13,1.09,131.53,.2,164.44c.1-.73-.05,28.16,.04,27.42,0-.01,0-.03,0-.04-.4,4.78-.18,7.84-.18,7.84,0-19.81,40.91-33.53,60.72-33.53h58.61c33.69,0,61-27.31,61-61v-32.09Z"/>
      </g>
      <g>
        <path class="cls-1" d="M246.53,256.97V34.98h50.13V120.23h76.73V34.98h50.47v222h-50.47v-92.75h-76.73v92.75h-50.13Z"/>
        <path class="cls-1" d="M514.56,261.06c-28.94,.67-50.9-22.56-50.13-51.15,1.59-47.59,45.7-55.69,95.14-62.4-1.22-15.73-10.49-23.78-26.6-23.53-16.34,.04-29.58,6.19-44.67,14.32l-18.07-32.4c30.47-19.19,76.18-31.36,108.95-13.81,23.68,14.04,30.67,38.99,30.86,68.37,0,0,0,96.51,0,96.51h-41.26l-3.41-17.39h-1.36c-14.63,12.46-29.66,21.68-49.45,21.48Zm17.05-39.22c11.8,.07,19.88-5.69,27.96-13.98v-28.64c-17.54,2.81-32.56,4.81-42.63,15.17-5.91,6.48-6.19,18.53,.85,23.53,3.52,2.62,8.13,3.92,13.81,3.92Z"/>
        <path class="cls-1" d="M651.98,256.97V87.83h40.92l3.41,21.48h1.36c14.77-14.36,32.2-26.01,54.22-25.58,40.94-.02,51.97,30.16,52.52,68.2,0,0,0,105.03,0,105.03h-50.13v-98.55c0-12.28-1.65-20.69-4.95-25.24-5.97-9.16-23.84-8.15-32.22-2.56-4.55,2.85-9.55,6.88-15,12.11v114.24h-50.13Z"/>
        <path class="cls-1" d="M896.82,261.06c-22.16,.05-48.77-9.17-64.79-25.23l21.14-28.3c13.72,11.14,28.83,16.18,45.01,16.37,7.5,0,12.96-1.31,16.37-3.92,6.48-4.61,6.99-15.03,.51-19.95-7.78-6.18-18.23-8.84-28.47-12.96-15.3-5.65-30.23-14.12-39.05-27.62-12.12-18.8-6.32-47.88,11.59-61.21,27.68-22.83,80.2-17.43,106.57,6.99l-21.48,27.96c-11.24-7.98-23.47-12.19-36.49-12.28-6.6,0-11.48,1.25-14.66,3.75-5.75,4.2-6.45,12.84-1.36,17.73,7.19,6.48,17.07,8.74,27.96,12.62,8.64,2.96,16.54,6.65,23.7,11.08,14.72,9.26,23.17,22.3,23.02,40.41-.02,36.6-34.18,55.63-69.57,54.56Z"/>
        <path class="cls-1" d="M1138.25,261.06c-29.95-.04-60.27-11-82.18-32.4l26.6-32.74c19.31,17.1,57.91,30.11,80.31,16.03,8.37-5.56,10.38-19.85,3.75-27.11-7.19-7.4-17.47-10.35-28.13-15.17-14.83-6.23-38.24-14.4-50.64-25.06-24.63-17.73-30.52-55.95-12.96-81.16,6.7-9.89,16.03-17.84,27.96-23.87,34.97-17.43,84.65-9.06,112.7,18.93l-26.6,32.4c-13.47-10.04-28.77-17.04-45.01-17.05-14.46,.03-28.06,5.19-28.3,20.12,0,4.32,1.48,8.01,4.43,11.08,7.35,7.46,19.13,10.12,29.33,15.18,14.68,6.33,40.63,14.61,52,25.23,14.02,12.01,20.72,27.26,20.63,46.72-.03,43.62-41.13,70.31-83.89,68.88Z"/>
        <path class="cls-1" d="M1314.21,260.72c-75.93,.78-55.94-83.42-58.65-133.67h-22.85v-37.17l25.92-2.05,5.8-51.83h41.6v51.83h40.24v39.22h-40.24v67.52c0,9.55,1.99,16.43,5.97,20.63,7.32,8.18,21.95,7.61,31.54,3.24l8.18,35.12c-10.85,4.98-24.1,7.21-37.51,7.16Z"/>
        <path class="cls-1" d="M1430.49,261.06c-40.21-.04-52.09-30.44-52.51-68.2,0,0,0-105.03,0-105.03h50.13v98.55c0,12.28,1.7,20.69,5.12,25.23,6.04,8.96,23.48,8.32,31.88,2.56,4.43-2.84,9.15-7.56,14.15-14.15V87.83h50.13v169.14h-40.92l-3.75-23.53h-1.02c-14.69,17-30.08,27.76-53.2,27.62Z"/>
        <path class="cls-1" d="M1633.73,261.06c-80.08,1.25-91.21-128.91-32.91-166.58,24.95-16.69,55.17-13.89,75.53,6.99l-2.05-25.92V17.93h50.13v239.05h-40.92l-3.41-16.71h-1.36c-11.41,11.38-28.61,21.04-45.01,20.8Zm12.96-40.92c12.03-.15,20.46-4.74,27.62-15.35v-69.22c-7.95-7.73-17.6-10.8-27.96-10.91-12.54,.17-21.14,8.42-26.09,20.63-2.85,6.94-4.26,15.75-4.26,26.43,.3,25.76,5.86,47.39,30.69,48.42Z"/>
        <path class="cls-1" d="M1793.66,62.94c-16.03,.21-28.5-9.98-28.3-26.26-.72-35.11,57.33-35.11,56.61,0,.2,16.28-12.28,26.46-28.3,26.26Zm-24.89,194.03V87.83h49.79v169.14h-49.79Z"/>
        <path class="cls-1" d="M1935.86,261.06c-70.8-.31-102.01-79.04-70.76-136.57,30.51-54.1,110.62-54.18,141.18,0,31.18,57.43,.16,136.02-70.42,136.57Zm0-40.58c34.1,0,34.44-49.81,27.62-73.66-4.3-13.71-13.23-22.52-27.62-22.51-14.75-.02-23.22,8.64-27.62,22.51-6.84,23.57-6.39,74.08,27.62,73.66Z"/>
      </g>
    </g>
  </g>
</svg>