<?xml version="1.0" encoding="UTF-8"?>
<svg id="Layer_2" data-name="Layer 2" xmlns="http://www.w3.org/2000/svg" viewBox="0 0 264.82 398.55">
  <defs>
    <style>
      .cls-1 {
        fill: #fff;
      }
    </style>
  </defs>
  <g id="Layer_1-2" data-name="Layer 1">
    <g>
      <path class="cls-1" d="M89.39,154.33c0-12.49,0-30.55,0-43.03,0-24.62-19.95-44.57-44.57-44.57l-44.53-.13c-.15,49.63,.03,140.44-.04,190.87,0,4.92,0,18.86,0,29.43-3.89,64.57,66.43,135.89,176.87,103.63-53.25-18.5-90.19-72.12-87.73-128.61-.02-3.92,.02-14.06,0-18.05v-89.55Z"/>
      <path class="cls-1" d="M.25,257.47c0,4.92,0,18.86,0,29.43-3.89,64.57,66.43,135.89,176.87,103.63-53.25-18.5-90.19-72.12-87.73-128.61-.02-3.92,.02-14.06,0-18.05v-89.55L.25,257.47Z"/>
      <path class="cls-1" d="M175.69,244.22c0,12.49,0,30.55,0,43.03,0,24.62,19.92,44.57,44.49,44.57l44.45,.13c.14-49.63-.03-140.44,.04-190.87,0-4.92,0-18.86,0-29.43C268.54,47.07,198.36-24.24,88.13,8.01c53.15,18.5,90.02,72.12,87.56,128.61,.02,3.92-.02,14.06,0,18.05v89.55Z"/>
      <path class="cls-1" d="M264.66,111.64C268.54,47.07,198.36-24.24,88.13,8.01c53.15,18.5,90.02,72.12,87.56,128.61,.02,3.92-.02,14.06,0,18.05v89.55l88.97-132.57Z"/>
      <path class="cls-1" d="M14.93,237.42c20.76-31.69,48.19-42.42,74.3-42.42l86.46-1.98c48.87,0,88.17-37.16,89.12-85.8l.02,.85v46.26c0,49.46-40.09,89.55-89.55,89.55H89.23C60.15,243.88,.1,264.01,.1,293.09c0,0-2.23-29.63,14.84-55.68Z"/>
      <path class="cls-1" d="M264.81,107.22c-.94,48.64-40.66,87.78-89.53,87.78l-76.53,22.02c-27.04,0-90.6-3.05-98.4,64.63-.13,1.09,.09-41.33-.06-40.25,1.31-48.31,40.89-87.07,89.51-87.07h85.88c29.09,0,89-23.49,89-52.58l.12,5.46Z"/>
    </g>
  </g>
</svg>